<svg xmlns="http://www.w3.org/2000/svg" width="1500.375" height="249.777" viewBox="0 0 1500.375 249.777">
  <path id="Subtraction_1" data-name="Subtraction 1" d="M1516.709,1198.979c-61.074,0-138.06-7.915-228.82-23.526-41.93-7.212-86.94-16.107-133.78-26.439-44.8-9.882-91.754-21.182-139.548-33.585-46.015-11.941-93.1-24.979-139.955-38.752-45.548-13.389-90.969-27.5-135-41.941-43.347-14.215-85.3-28.733-124.691-43.151-39.347-14.4-76.026-28.661-109.019-42.382,305.964,84.456,730.713,185.132,1016.679,185.132,118.313,0,222.888-17.472,310.822-51.93,68.425-26.814,126.588-63.726,172.874-109.71-10.272,14.012-21.288,27.63-32.741,40.477a534.14,534.14,0,0,1-39.714,40.069A526.018,526.018,0,0,1,1831.15,1126c-10.048,5.455-20.454,10.682-30.928,15.534-10.79,5-21.952,9.738-33.177,14.086-11.551,4.475-23.494,8.663-35.5,12.447-12.339,3.89-25.088,7.461-37.892,10.615-13.149,3.239-26.728,6.13-40.358,8.59-13.984,2.525-28.416,4.67-42.9,6.374-14.839,1.747-30.149,3.081-45.506,3.965C1549.176,1198.52,1532.963,1198.979,1516.709,1198.979Z" transform="translate(-505.893 -949.202)" fill="#3c41df"/>
</svg>
